<svg width="32" height="32" viewBox="0 0 32 32" fill="none" xmlns="http://www.w3.org/2000/svg">
<g clip-path="url(#clip0_113_2)">
<path d="M3.79473 15.6046L3.79287 16.4881L27.8617 16.5384L27.8635 15.6549L3.79473 15.6046Z" fill="#010101"/>
<path d="M16.2935 4.1578L15.4086 4.17152L15.7824 28.1935L16.6674 28.1798L16.2935 4.1578Z" fill="#010101"/>
<path d="M27.2411 4.00376L4.40043 27.2691L5.03257 27.8874L27.8733 4.62209L27.2411 4.00376Z" fill="#010101"/>
<path d="M16.2238 20.5049C18.6926 20.5049 20.6939 18.5072 20.6939 16.043C20.6939 13.5787 18.6926 11.5811 16.2238 11.5811C13.7551 11.5811 11.7538 13.5787 11.7538 16.043C11.7538 18.5072 13.7551 20.5049 16.2238 20.5049Z" fill="#010101"/>
<path d="M29.2381 4.87099C30.4934 4.87099 31.511 3.85522 31.511 2.60221C31.511 1.3492 30.4934 0.333441 29.2381 0.333441C27.9828 0.333441 26.9651 1.3492 26.9651 2.60221C26.9651 3.85522 27.9828 4.87099 29.2381 4.87099Z" fill="#386C96"/>
<path d="M29.2381 5.20443C28.5527 5.20443 27.9053 4.93974 27.4128 4.46192C26.3866 3.45816 26.3694 1.80814 27.3749 0.783758C27.864 0.285315 28.5149 0.00687507 29.2139 0C29.2243 0 29.2312 0 29.2415 0C29.9268 0 30.5743 0.26469 31.0667 0.742507C31.5626 1.23064 31.8416 1.88033 31.8485 2.57471C31.8554 3.26909 31.5902 3.92566 31.1046 4.42067C30.619 4.91567 29.9647 5.19411 29.269 5.20099C29.2587 5.20099 29.2518 5.20099 29.2415 5.20099L29.2381 5.20443ZM29.2381 0.663444C29.2381 0.663444 29.2243 0.663444 29.2174 0.663444C28.6974 0.670319 28.2118 0.876571 27.8502 1.24439C27.0994 2.00752 27.1132 3.23816 27.8777 3.98754C28.2428 4.34504 28.7249 4.54098 29.2381 4.54098C29.2449 4.54098 29.2518 4.54098 29.2587 4.54098C29.7787 4.53411 30.2643 4.32786 30.6259 3.96004C30.9875 3.58879 31.1873 3.10066 31.1804 2.58503C31.1735 2.0694 30.9669 1.58127 30.5984 1.22032C30.2333 0.862821 29.7512 0.666882 29.2381 0.666882V0.663444Z" fill="#010101"/>
<path d="M3.03745 31.5566C4.29275 31.5566 5.31037 30.5408 5.31037 29.2878C5.31037 28.0348 4.29275 27.019 3.03745 27.019C1.78215 27.019 0.764528 28.0348 0.764528 29.2878C0.764528 30.5408 1.78215 31.5566 3.03745 31.5566Z" fill="#386C96"/>
<path d="M3.03745 32C2.35213 32 1.66337 31.7422 1.13646 31.2266C0.0654326 30.1781 0.0482135 28.4593 1.09858 27.3903C2.14895 26.3212 3.87086 26.304 4.94189 27.3525C5.4619 27.8612 5.75118 28.5384 5.75807 29.2637C5.76496 29.989 5.48945 30.6731 4.97977 31.1887C4.44942 31.7284 3.74343 32 3.03745 32ZM3.03745 27.459C2.5622 27.459 2.08696 27.6412 1.7288 28.0056C1.02282 28.724 1.03315 29.8859 1.75635 30.5906C2.47611 31.2953 3.64012 31.285 4.3461 30.5631C4.68704 30.2159 4.87301 29.7519 4.86957 29.2637C4.86612 28.7756 4.66982 28.3184 4.31855 27.9746C3.96384 27.6275 3.49892 27.4521 3.03745 27.4521V27.459Z" fill="#010101"/>
<path d="M4.54336 4.23105L3.92389 4.86203L27.2318 27.661L27.8512 27.03L4.54336 4.23105Z" fill="#010101"/>
<path d="M2.77916 5.05317C4.03447 5.05317 5.05209 4.03741 5.05209 2.7844C5.05209 1.53139 4.03447 0.51563 2.77916 0.51563C1.52386 0.51563 0.506242 1.53139 0.506242 2.7844C0.506242 4.03741 1.52386 5.05317 2.77916 5.05317Z" fill="#396D97"/>
<path d="M2.77572 5.49662C2.05941 5.49662 1.38442 5.22161 0.874731 4.71973C-0.196298 3.67129 -0.213517 1.95252 0.836849 0.883446C1.34309 0.367816 2.02497 0.0790634 2.75161 0.0721883C3.47826 0.0653133 4.16358 0.340316 4.68016 0.849071C5.20017 1.35783 5.48945 2.03502 5.49634 2.76034C5.50323 3.48566 5.22772 4.16973 4.71804 4.68536C4.20835 5.20099 3.52992 5.49318 2.80327 5.50005C2.79294 5.50005 2.78605 5.50005 2.77572 5.50005V5.49662ZM2.77917 0.959072C2.30392 0.959072 1.82867 1.14126 1.47051 1.50564C0.764529 2.22408 0.77486 3.38597 1.49806 4.09067C1.84589 4.43098 2.31769 4.62005 2.79983 4.61317C3.28885 4.60973 3.74688 4.41379 4.08782 4.06316C4.42876 3.71597 4.61472 3.25191 4.61128 2.76378C4.60784 2.27565 4.41154 1.81846 4.06027 1.47814C3.70555 1.13095 3.24064 0.955635 2.77917 0.955635V0.959072Z" fill="#010101"/>
<path d="M29.2828 31.0822C30.5381 31.0822 31.5557 30.0664 31.5557 28.8134C31.5557 27.5604 30.5381 26.5446 29.2828 26.5446C28.0275 26.5446 27.0099 27.5604 27.0099 28.8134C27.0099 30.0664 28.0275 31.0822 29.2828 31.0822Z" fill="#396D97"/>
<path d="M29.2828 31.5256C28.5665 31.5256 27.895 31.2506 27.3818 30.7487C26.3108 29.7003 26.2936 27.9815 27.344 26.9125C27.8536 26.3934 28.5321 26.1046 29.2587 26.0978C29.9819 26.0874 30.6707 26.3659 31.1873 26.8712C32.2583 27.9197 32.2755 29.6384 31.2251 30.7075C30.7155 31.2266 30.037 31.5153 29.3104 31.5222C29.3 31.5222 29.2932 31.5222 29.2828 31.5222V31.5256ZM29.2828 26.9846C29.2828 26.9846 29.2691 26.9846 29.2656 26.9846C28.7766 26.9881 28.3186 27.184 27.9776 27.5346C27.2716 28.2531 27.282 29.415 28.0052 30.1197C28.353 30.46 28.8179 30.6422 29.3069 30.6422C29.796 30.6387 30.254 30.4428 30.5949 30.0922C31.3009 29.3737 31.2906 28.2118 30.5674 27.5071C30.223 27.1703 29.7684 26.9846 29.2863 26.9846H29.2828Z" fill="#010101"/>
<path d="M15.9656 4.07348C16.9165 4.07348 17.6875 3.30396 17.6875 2.35471C17.6875 1.40546 16.9165 0.635944 15.9656 0.635944C15.0146 0.635944 14.2437 1.40546 14.2437 2.35471C14.2437 3.30396 15.0146 4.07348 15.9656 4.07348Z" fill="#EBC613"/>
<path d="M15.9656 4.51348C15.9483 4.51348 15.9311 4.51348 15.9105 4.51348C15.3319 4.49973 14.7947 4.26254 14.3952 3.84316C13.9957 3.42722 13.7856 2.87722 13.7994 2.29971C13.8132 1.7222 14.0508 1.18595 14.4709 0.787196C15.3353 -0.0309375 16.7094 3.60517e-07 17.5325 0.862821C17.932 1.27876 18.1421 1.82877 18.1283 2.40627C18.1145 2.98378 17.8769 3.52003 17.4567 3.91879C17.0504 4.30379 16.5235 4.51348 15.9656 4.51348ZM15.9621 1.07939C15.6315 1.07939 15.3216 1.20314 15.0805 1.43001C14.8325 1.66377 14.6913 1.98346 14.6845 2.32377C14.6776 2.66409 14.8015 2.98722 15.0357 3.23472C15.2699 3.48222 15.5902 3.62316 15.9311 3.63004C16.2755 3.63691 16.5958 3.51316 16.8437 3.27941C17.0917 3.04566 17.2329 2.72596 17.2398 2.38565C17.2467 2.04533 17.1227 1.7222 16.8885 1.4747C16.6543 1.2272 16.334 1.08626 15.9931 1.07939C15.9828 1.07939 15.9724 1.07939 15.9621 1.07939Z" fill="#010101"/>
<path d="M29.6134 17.662C30.5644 17.662 31.3353 16.8925 31.3353 15.9433C31.3353 14.994 30.5644 14.2245 29.6134 14.2245C28.6624 14.2245 27.8915 14.994 27.8915 15.9433C27.8915 16.8925 28.6624 17.662 29.6134 17.662Z" fill="#EBC616"/>
<path d="M29.61 18.1055C29.0418 18.1055 28.5045 17.8855 28.0947 17.4867C27.2441 16.6514 27.2303 15.2833 28.0637 14.4308C28.4701 14.0183 29.0108 13.7879 29.5859 13.7845C30.161 13.7742 30.7086 13.9976 31.1218 14.4033C31.5351 14.8055 31.7658 15.3486 31.7693 15.9227C31.7762 16.5002 31.5557 17.0433 31.1494 17.4558C30.743 17.8683 30.2023 18.0986 29.6272 18.1021C29.6203 18.1021 29.6134 18.1021 29.6031 18.1021L29.61 18.1055ZM29.6134 14.668H29.5997C29.2587 14.6714 28.9384 14.8089 28.7008 15.0495C28.2084 15.5514 28.2152 16.3627 28.718 16.8542C28.9591 17.088 29.2759 17.2186 29.6134 17.2186H29.6272C29.9681 17.2152 30.2884 17.0777 30.526 16.837C30.7637 16.593 30.8945 16.2733 30.8911 15.933C30.8876 15.5927 30.7499 15.273 30.5088 15.0358C30.2678 14.7986 29.9509 14.6714 29.6134 14.6714V14.668Z" fill="#010101"/>
<path d="M2.16272 17.6655C3.11371 17.6655 3.88463 16.896 3.88463 15.9467C3.88463 14.9975 3.11371 14.228 2.16272 14.228C1.21174 14.228 0.440809 14.9975 0.440809 15.9467C0.440809 16.896 1.21174 17.6655 2.16272 17.6655Z" fill="#EBC618"/>
<path d="M2.16263 18.1055C1.61506 18.1055 1.0675 17.8992 0.647349 17.4902C-0.203276 16.6549 -0.217051 15.2867 0.616354 14.4342C1.44976 13.5817 2.82384 13.5714 3.67791 14.4033C4.52854 15.2386 4.54231 16.6067 3.70891 17.4592C3.28532 17.8889 2.72397 18.1055 2.16263 18.1055ZM2.16263 14.6714C1.83202 14.6714 1.50142 14.7986 1.25002 15.053C0.757551 15.5548 0.764439 16.3661 1.26724 16.8577C1.77003 17.3492 2.58278 17.3424 3.07524 16.8405C3.56771 16.3386 3.56082 15.5273 3.05802 15.0358C2.81007 14.7917 2.48635 14.6714 2.16263 14.6714Z" fill="#010101"/>
<path d="M16.3203 31.5566C17.2713 31.5566 18.0422 30.787 18.0422 29.8378C18.0422 28.8885 17.2713 28.119 16.3203 28.119C15.3693 28.119 14.5984 28.8885 14.5984 29.8378C14.5984 30.787 15.3693 31.5566 16.3203 31.5566Z" fill="#EBC618"/>
<path d="M16.3203 31.9966C16.3031 31.9966 16.2858 31.9966 16.2652 31.9966C15.6866 31.9828 15.1494 31.7456 14.7499 31.3262C14.3504 30.9069 14.1403 30.3603 14.1541 29.7828C14.1679 29.2053 14.4055 28.669 14.8257 28.2703C15.6901 27.4487 17.0607 27.4831 17.8838 28.3459C18.2833 28.7653 18.4933 29.3118 18.4796 29.8894C18.4658 30.4669 18.2282 31.0031 17.808 31.4019C17.4016 31.7869 16.8747 31.9966 16.3168 31.9966H16.3203ZM16.3203 28.5625C16.0034 28.5625 15.6866 28.6793 15.4387 28.9131C15.1907 29.1468 15.0495 29.4665 15.0426 29.8069C15.0357 30.1472 15.1597 30.4703 15.3939 30.7178C15.6281 30.9653 15.9483 31.1062 16.2893 31.1131C16.6302 31.1234 16.9539 30.9962 17.2019 30.7625C17.4498 30.5287 17.591 30.209 17.5979 29.8687C17.6048 29.5284 17.4808 29.2053 17.2467 28.9578C16.9953 28.6965 16.6578 28.5625 16.3203 28.5625Z" fill="#010101"/>
</g>
<defs>
<clipPath id="clip0_113_2">
<rect width="32" height="32" fill="white"/>
</clipPath>
</defs>
</svg>
